<svg width="1957" height="1090" viewBox="0 0 1957 1090" fill="none" xmlns="http://www.w3.org/2000/svg">
<path d="M338.297 0C313.087 5.9672 266 21.4819 279.331 35.8032C287.877 46.8851 314.967 65.7244 354.962 52.4261C390.854 42.1966 437.77 17.3901 338.297 0Z" fill="white" fill-opacity="0.7"/>
<path d="M57.5203 359.828C74.8332 320.078 140.265 278.713 170.818 263C198.314 415.886 182.275 528.852 170.818 566.225C153.505 645.726 114.381 623.132 96.9834 601.898C49.1185 520.359 50.731 406.543 57.5203 359.828Z" fill="white" fill-opacity="0.7"/>
<ellipse cx="566.111" cy="905.923" rx="102.295" ry="150.434" transform="rotate(33.6871 566.111 905.923)" fill="white" fill-opacity="0.7"/>
<ellipse cx="785.623" cy="568.145" rx="39.4965" ry="51.0094" transform="rotate(90.9782 785.623 568.145)" fill="white" fill-opacity="0.7"/>
<ellipse cx="1080.4" cy="76.7115" rx="51.4965" ry="118.78" transform="rotate(90.9782 1080.4 76.7115)" fill="white" fill-opacity="0.7"/>
<ellipse cx="1793.15" cy="497.202" rx="51.1146" ry="94.3201" transform="rotate(-155.427 1793.15 497.202)" fill="white" fill-opacity="0.7"/>
<ellipse cx="1786.35" cy="761.014" rx="130.082" ry="168.814" transform="rotate(164.417 1786.35 761.014)" fill="white" fill-opacity="0.7"/>
<ellipse cx="1259.3" cy="415.561" rx="158.34" ry="135.653" transform="rotate(164.417 1259.3 415.561)" fill="white" fill-opacity="0.7"/>
<ellipse cx="916.02" cy="263.381" rx="198.17" ry="150.434" transform="rotate(33.6871 916.02 263.381)" fill="white" fill-opacity="0.7"/>
<ellipse cx="110.805" cy="958.337" rx="41.1161" ry="81.9154" transform="rotate(-28.398 110.805 958.337)" fill="white" fill-opacity="0.7"/>
<ellipse cx="235.729" cy="836.493" rx="118.832" ry="228.57" transform="rotate(-38.7427 235.729 836.493)" fill="white" fill-opacity="0.7"/>
</svg>
