<svg width="1920" height="1080" viewBox="0 0 1920 1080" fill="none" xmlns="http://www.w3.org/2000/svg">
<g style="mix-blend-mode:color-burn">
<path d="M1212.47 593.206C1212.47 699.219 1250.15 927.861 1400.9 994.324L1662.11 1080H1815.45L1662.11 868.407L1212.47 593.206Z" fill="#1239FF"/>
<path d="M1212.47 356.949C1165.25 255.263 1113.44 42.2857 1283.94 3.86143C1454.44 -34.5628 1483.2 223.243 1476.27 356.949C1435.55 336.179 1325.79 307.101 1212.47 356.949Z" fill="#1239FF"/>
<path d="M1857.04 233.628C1875.23 398.056 1913.18 726.912 1919.42 726.912V3.86143H1662.11L1857.04 233.628Z" fill="#1239FF"/>
<path d="M1919.42 737.927C1914.34 785.742 1877.41 977.502 1857.04 1080H1919.42V737.927Z" fill="#1239FF"/>
<path d="M631.575 686.671C677.925 655.516 792.007 591 923 591C858.89 542.104 755.031 419.778 807.012 312.813C734.671 344.833 598.307 464.433 631.575 686.671Z" fill="#1239FF"/>
<path d="M233.917 89.5371L137.751 277.764L117.5 719.5L202.728 312.813L233.917 89.5371Z" fill="#1239FF"/>
<path d="M0 839.848L274.202 1080H0V839.848Z" fill="#1239FF"/>
<path d="M497.723 3.86143C577.427 54.0553 743.855 170.28 771.925 233.628L807.012 312.813C925.53 250.504 941.298 80.883 934.367 3.86143H497.723Z" fill="#1239FF"/>
</g>
<g style="mix-blend-mode:color-burn">
<path d="M117.693 716.527C222.562 688.834 467.196 644.611 606.786 689.267C670.677 723.45 798.458 804.28 798.458 854.127C706.367 943.697 479.622 1098.69 309.365 1002.11C245.474 975.285 117.693 880.609 117.693 716.527Z" fill="#1239FF"/>
<path d="M798.458 854.127L1049.61 1073.51L1213.53 528.3C1213.53 528.3 1268.36 400.601 1213.53 371.228C1183.61 355.207 1126.28 371.228 1126.28 371.228C1126.28 371.228 994.976 444.355 972.945 484.164L798.458 854.127Z" fill="#1239FF"/>
</g>
</svg>
