<svg width="862" height="216" viewBox="0 0 862 216" fill="none" xmlns="http://www.w3.org/2000/svg">
<path d="M54.048 2.008V8.632L50.688 4.6H21.12V29.752H43.104V32.344H21.12V65.656H8.352V5.56C7.904 4.984 7.424 4.408 6.912 3.832C6.4 3.25599 5.888 2.64799 5.376 2.008H54.048ZM66.732 65.656V5.368L63.468 2.008H78.732V62.296L82.188 65.656H66.732ZM144.01 65.56H131.915L112.715 36.088H108.683V65.56H95.9145V5.56C95.4665 4.984 94.9865 4.408 94.4745 3.832C93.9625 3.25599 93.4505 2.64799 92.9385 2.008H126.443C128.811 2.008 131.019 2.456 133.067 3.352C135.179 4.248 137.003 5.464 138.539 7C140.075 8.536 141.291 10.36 142.187 12.472C143.083 14.52 143.531 16.728 143.531 19.096C143.531 21.4 143.051 23.576 142.091 25.624C141.131 27.608 139.787 29.368 138.059 30.904C136.395 32.44 134.411 33.688 132.107 34.648C129.867 35.544 127.467 36.088 124.907 36.28L144.01 65.56ZM116.171 33.592C118.155 33.592 120.011 33.208 121.739 32.44C123.531 31.672 125.067 30.648 126.347 29.368C127.691 28.024 128.747 26.488 129.515 24.76C130.283 22.968 130.667 21.08 130.667 19.096C130.667 17.24 130.315 15.512 129.611 13.912C128.971 12.248 128.075 10.776 126.923 9.496C125.771 8.152 124.427 7.064 122.891 6.232C121.355 5.4 119.691 4.856 117.899 4.6H108.683V33.592H116.171ZM172.587 66.712C170.923 66.712 169.323 66.584 167.787 66.328C166.251 66.072 164.651 65.624 162.987 64.984C161.387 64.344 159.691 63.48 157.899 62.392C156.171 61.304 154.251 59.896 152.139 58.168V45.592C152.587 47.576 153.451 49.592 154.731 51.64C156.011 53.688 157.515 55.576 159.243 57.304C161.035 58.968 162.987 60.344 165.099 61.432C167.211 62.456 169.323 62.968 171.435 62.968C173.483 62.968 175.403 62.68 177.195 62.104C179.051 61.464 180.651 60.6 181.995 59.512C183.339 58.424 184.395 57.112 185.163 55.576C185.995 54.04 186.411 52.344 186.411 50.488C186.411 48.632 186.059 47.032 185.355 45.688C184.715 44.28 183.787 43.096 182.571 42.136C181.355 41.112 179.915 40.28 178.251 39.64C176.587 39 174.795 38.488 172.875 38.104C169.227 37.208 165.867 36.024 162.795 34.552C159.723 33.016 157.259 31.064 155.403 28.696C154.315 27.224 153.451 25.72 152.811 24.184C152.235 22.584 151.947 20.856 151.947 19C151.947 16.504 152.491 14.168 153.579 11.992C154.667 9.752 156.139 7.832 157.995 6.232C159.851 4.568 162.027 3.256 164.523 2.296C167.019 1.336 169.707 0.855999 172.587 0.855999C175.275 0.855999 177.867 1.368 180.363 2.392C182.923 3.416 185.291 4.824 187.467 6.616C188.171 6.04 188.939 5.368 189.771 4.6C190.667 3.832 191.563 3.09599 192.459 2.392V16.408C190.219 14.232 187.979 12.28 185.739 10.552C183.755 9.08 181.611 7.736 179.307 6.51999C177.003 5.24 174.763 4.6 172.587 4.6C169.451 4.6 166.955 5.432 165.099 7.096C163.243 8.696 162.315 10.936 162.315 13.816C162.315 16.632 163.243 18.808 165.099 20.344C166.955 21.816 169.323 22.968 172.203 23.8L173.739 24.184L173.643 24.088C176.843 24.984 179.787 25.944 182.475 26.968C185.227 27.928 187.627 29.464 189.675 31.576C191.531 33.432 193.003 35.512 194.091 37.816C195.179 40.056 195.723 42.552 195.723 45.304C195.723 48.248 195.115 51.032 193.899 53.656C192.683 56.216 191.019 58.488 188.907 60.472C186.859 62.392 184.427 63.928 181.611 65.08C178.795 66.168 175.787 66.712 172.587 66.712ZM252.611 4.696H233.219V65.752H220.547V4.696H204.227L201.059 9.784V2.10399H252.611V4.696ZM46.464 169.064V171.656H5.472L8.448 168.104V111.56C8 110.984 7.52 110.408 7.008 109.832C6.496 109.256 5.984 108.648 5.472 108.008H21.216V169.064H46.464ZM93.8078 171.656L86.0318 153.128H60.3998L52.7198 171.656H50.4158L75.2798 111.656L72.2078 108.008H80.2718L106.672 171.656H93.8078ZM61.4557 150.536H85.0718L73.2638 122.216L61.4557 150.536ZM114.776 108.104H133.496L160.28 151.112V108.104H163.832V171.656H159.608L121.4 108.488L121.304 167.624V171.752H117.752L117.848 111.656L114.776 108.104ZM201.218 108.008C205.634 108.008 209.762 108.84 213.602 110.504C217.442 112.168 220.802 114.44 223.682 117.32C226.562 120.2 228.834 123.592 230.498 127.496C232.162 131.336 232.994 135.464 232.994 139.88C232.994 144.296 232.162 148.424 230.498 152.264C228.834 156.104 226.562 159.464 223.682 162.344C220.802 165.224 217.442 167.496 213.602 169.16C209.762 170.824 205.634 171.656 201.218 171.656H176.45V111.56C176.002 110.984 175.522 110.408 175.01 109.832C174.498 109.256 173.986 108.648 173.474 108.008H201.218ZM201.314 169.064C203.874 169.064 206.274 168.296 208.514 166.76C210.754 165.224 212.706 163.144 214.37 160.52C216.034 157.832 217.346 154.728 218.306 151.208C219.33 147.688 219.842 143.912 219.842 139.88C219.842 135.848 219.33 132.072 218.306 128.552C217.346 124.968 216.034 121.864 214.37 119.24C212.706 116.552 210.722 114.44 208.418 112.904C206.178 111.368 203.778 110.6 201.218 110.6H189.218V169.064L201.218 169.16L201.314 169.064ZM247.576 171.656V111.368L244.312 108.008H259.576V168.296L263.032 171.656H247.576ZM273.494 108.104H292.214L318.998 151.112V108.104H322.55V171.656H318.326L280.118 108.488L280.022 167.624V171.752H276.47L276.566 111.656L273.494 108.104ZM389.025 141.416V155.432L383.937 160.712H384.033L380.385 163.976C379.489 164.808 378.561 165.576 377.601 166.28C376.705 166.984 375.713 167.624 374.625 168.2C372.769 169.352 370.817 170.216 368.769 170.792C366.785 171.368 364.481 171.656 361.857 171.656C357.441 171.656 353.313 170.824 349.473 169.16C345.633 167.496 342.273 165.224 339.393 162.344C336.513 159.464 334.241 156.104 332.577 152.264C330.913 148.424 330.081 144.296 330.081 139.88C330.081 135.464 330.913 131.336 332.577 127.496C334.241 123.592 336.513 120.2 339.393 117.32C342.273 114.44 345.633 112.168 349.473 110.504C353.313 108.84 357.441 108.008 361.857 108.008C365.313 108.008 368.417 108.616 371.169 109.832C373.921 111.048 376.769 112.712 379.713 114.824L383.553 110.504V121.832C381.633 119.784 379.649 117.928 377.601 116.264C375.873 114.856 373.985 113.576 371.937 112.424C369.889 111.208 367.905 110.6 365.985 110.6C362.593 110.6 359.489 111.368 356.673 112.904C353.857 114.44 351.393 116.552 349.281 119.24C347.233 121.864 345.633 124.968 344.481 128.552C343.329 132.072 342.753 135.848 342.753 139.88C342.753 143.912 343.393 147.72 344.673 151.304C345.953 154.824 347.681 157.896 349.857 160.52C352.033 163.144 354.561 165.224 357.441 166.76C360.385 168.296 363.521 169.064 366.849 169.064C368.577 169.064 370.209 168.808 371.745 168.296C373.281 167.72 374.817 166.92 376.353 165.896V144.776L373.089 141.416H389.025Z" fill="#1E94E0"/>
<path d="M7 199H400" stroke="#003E66" stroke-width="4" stroke-dasharray="5 5"/>
</svg>
